# xmcd
#
# Track frame offsets:
# 150
# 23222
# 36827
# 49114
# 66177
# 79810
# 94685
# 111295
# 123982
# 135715
# 148645
# 160335
# 177272
# 193180
# 207995
# 222590
# 238252
# 250327
#
# Disc length: 3478 seconds
#
#
# Revision: 0
# Processed by: cddbd v1.5.1PL2 Copyright (c) Steve Scherf et al.
# Submitted via: FreeRIP 2.945 
#
DISCID=120d9412
DTITLE=Various Artist - Moonlight Piano - Disc 1
DYEAR=1900
DGENRE=Classical
TTITLE0=My Funny Valentine
TTITLE1=Stardust
TTITLE2=Smoke Gets In Your Eyes
TTITLE3=Feelings
TTITLE4=Unforgettable
TTITLE5=Autumn Leaves
TTITLE6=Embraceable You
TTITLE7=I Only Have Eyes For You
TTITLE8=Tenderly
TTITLE9=I Get A Kick Out Of You
TTITLE10=Mona Lisa
TTITLE11=Fly Me To The Moon
TTITLE12=Laura
TTITLE13=Misty
TTITLE14=It Had To Be You
TTITLE15=Satin
TTITLE16=Medley: Just One Of Those Things/I've Got You Under My Skin
TTITLE17=What A Wonderful World
EXTD=
EXTT0=
EXTT1=
EXTT2=
EXTT3=
EXTT4=
EXTT5=
EXTT6=
EXTT7=
EXTT8=
EXTT9=
EXTT10=
EXTT11=
EXTT12=
EXTT13=
EXTT14=
EXTT15=
EXTT16=
EXTT17=
PLAYORDER=
